PathFileType	4	(X/Y/Z)	20_2_75_p1_0-660_filt_butterworth.trc
DataRate	CameraRate	NumFrames	NumMarkers	Units	OrigDataRate	OrigDataStartFrame	OrigNumFrames
60.0	60.0	4	27	m	60.0	0	660
Frame#	Time	RHip			RKnee			RAnkle			RBigToe			RSmallToe			RHeel			LHip			LKnee			LAnkle			LBigToe			LSmallToe			LHeel			Neck			Head			Nose			RShoulder			RElbow			RWrist			RThumb			RIndex			RPinky			LShoulder			LElbow			LWrist			LThumb			LIndex			LPinky			
		X1	Y1	Z1	X2	Y2	Z2	X3	Y3	Z3	X4	Y4	Z4	X5	Y5	Z5	X6	Y6	Z6	X7	Y7	Z7	X8	Y8	Z8	X9	Y9	Z9	X10	Y10	Z10	X11	Y11	Z11	X12	Y12	Z12	X13	Y13	Z13	X14	Y14	Z14	X15	Y15	Z15	X16	Y16	Z16	X17	Y17	Z17	X18	Y18	Z18	X19	Y19	Z19	X20	Y20	Z20	X21	Y21	Z21	X22	Y22	Z22	X23	Y23	Z23	X24	Y24	Z24	X25	Y25	Z25	X26	Y26	Z26	X27	Y27	Z27	
0	0.0	0.33959255879685213	0.6366968642244808	0.8384123364911653	0.34690387423291874	0.22448751069502912	0.8061417482157156	0.35648337376431505	-0.20748115971322414	0.8039989118306683	0.30728350690671163	-0.17982721007965632	0.5774611731300233	0.3697248560301582	-0.20117707173200589	0.623330106457045	0.3306804317042379	-0.29237919373943505	0.883221101079051	0.13529524348577776	0.6087203037913043	0.8664985654102482	0.139646307616954	0.2358977765188156	0.825196638988747	0.14215567387522793	-0.16292366581666284	0.8102332470125535	0.14646431930242737	-0.17765720725885903	0.598699376504868	0.09430460768193544	-0.2072156420171132	0.6626899395771269	0.15990936910293724	-0.2317069202194357	0.8557310898626103	0.2533229373191411	1.1577162932917748	0.8652893922342846	0.2611841423574505	1.4090007880882418	0.8405682907527998	0.24303524827781608	1.3026133400170121	0.7487662128399064	0.38987278914062207	1.0762994323934048	0.8282589858109066	0.44887229268227086	0.7998965970629002	0.8366161179132097	0.35687503747096677	0.6703603884836503	0.6511476859064851	0.2681289503594867	0.6274932147867137	0.5547311224965588	0.2846852026917509	0.6116696445704031	0.5671535220879373	0.3070482797435708	0.6058770874959042	0.5692121856859107	0.10503953525708803	1.0568610250965491	0.8766519160905069	0.06598851471619756	0.8068384693962402	0.8185220627144636	0.0997598805351429	0.5781329057430373	0.7432772525390174	0.15550203882038857	0.5517914234530874	0.66524800435066	0.14117625426595254	0.5129072892088713	0.6435615726460309	0.10347591636453712	0.44008180774743877	0.7302379736463127	
1	0.0166666666666666	0.3413024438584237	0.631768999053695	0.8378310749036724	0.348448577851132	0.2202556409606365	0.8086125195660184	0.35673923451686673	-0.20824637146061548	0.8048705774324598	0.3073637891444265	-0.18826123340719672	0.5836684563779351	0.3709858734690299	-0.1962510928210332	0.6178773978910136	0.3302951945460435	-0.29341574691556477	0.8847415290505981	0.13515062869423786	0.6091146677624775	0.8629608837589051	0.1400133629711183	0.23525130743490968	0.8243174283902386	0.14242838555801446	-0.16329080257977682	0.8093969801902864	0.14549581371948314	-0.1748276159588116	0.5998803059219915	0.09464293948705825	-0.20615107043579672	0.6621626545650775	0.15962884221417842	-0.23314007992304203	0.8557999001144982	0.2532122246289513	1.159344073101209	0.8660731317647842	0.2612183609462224	1.4075911155376741	0.8402253491178845	0.24564798507296204	1.3030766839434083	0.7479787982517194	0.3899529065471554	1.0747576592082375	0.8273963792501895	0.4499144191186277	0.8014305715116489	0.8342464875364021	0.35852294370439053	0.6695266686600825	0.6560856727178688	0.273737870450736	0.6230715608824166	0.5654114211916054	0.28731417811481025	0.61124102933128	0.5681042386367989	0.31129710555274626	0.6030228322781825	0.5748610762200027	0.10196225469355605	1.0588434429528102	0.8689416561932837	0.06094379791789885	0.8077158237497193	0.8233804712375623	0.09736531329140444	0.5783585262090349	0.7433707522329147	0.14941507714681343	0.5511514294757179	0.6631018051537977	0.13788143085729715	0.5058442134822004	0.6503917604852357	0.0978794123539228	0.44094471333441776	0.7305307206563896	
2	0.0333333333333333	0.34288076944950446	0.6276593154608485	0.837537955485163	0.34967759237122775	0.21683091937718427	0.8107857133680869	0.35686662537948743	-0.20862728236921477	0.8053255232318357	0.3071257795340936	-0.1916377610138291	0.5861612752903776	0.37173862171467337	-0.19302013730508677	0.6143056126490458	0.33006031211121445	-0.2939742654692312	0.8857295900949083	0.1351164034284576	0.6096415314946161	0.8598333231966101	0.14030186956141447	0.2346329266833678	0.8236831227245183	0.14262584824970967	-0.16365133505116164	0.8087449562972999	0.14506669983505563	-0.1729183948816965	0.5996681525615094	0.09481080376310506	-0.2057659051761364	0.6619100877060454	0.15937399135616073	-0.23440489557206926	0.8558734785250791	0.253144162115534	1.1603842226503767	0.8665666135904	0.26127389516119026	1.4066273585927833	0.8401037703681906	0.24699976722331055	1.3031581718750829	0.7484699680423086	0.3900047539687371	1.0737723427265364	0.8268312172983605	0.45129640722337006	0.8014092862473448	0.8339575060118216	0.35971576247457276	0.6684185094196934	0.6594166695889006	0.2775720529784092	0.619808865455156	0.5721457764993008	0.2893903204690162	0.6106853683917391	0.5685490870809166	0.3157476989469661	0.5992877278642033	0.5821246740045614	0.09980144270007045	1.0602117480407622	0.8640715129033791	0.05750575587370426	0.80855539747327	0.8258145671036081	0.09406343759248226	0.5796559411272089	0.7429069247217273	0.14470867712150207	0.5507168355942963	0.6611539701844946	0.1352542393645707	0.5018295651486879	0.6539098225861789	0.09235789154683499	0.4423269678435133	0.7313768542026342	
3	0.05	0.3443289143651184	0.6243053366043938	0.8374973691026257	0.35061753390056294	0.2141428695440661	0.8126788225810134	0.356878336011393	-0.2086622838984691	0.8054049465506816	0.3066449311514267	-0.1911501422741939	0.5858194276795009	0.3720851868640812	-0.19117085543417137	0.612266676108083	0.329961433808171	-0.2941066526667274	0.8862325056602197	0.13518045493926914	0.6102786868321648	0.8570914122584921	0.14052171675442507	0.23404890300720355	0.8232609051144028	0.1427547675124579	-0.16400351086922182	0.8082618524959034	0.1450639510062266	-0.17177847765952242	0.5983822552635376	0.0948456131222183	-0.20589686967447782	0.6618703368091662	0.15914348483542995	-0.23551139439085533	0.8559511749268559	0.25311056910194896	1.1609483370599192	0.8668264246356912	0.26134215911417535	1.406001194746205	0.8401514816720705	0.24735866257672967	1.3029383163374129	0.7499426002409503	0.39003490781421957	1.0732360102445542	0.8265091467424173	0.45294124679622666	0.80013955167123	0.8353533447694085	0.3606228263167014	0.6670297673642438	0.6615410957252728	0.27989954776217507	0.617462655337035	0.5758314615850839	0.2909844769552089	0.610027951133677	0.5686712933668703	0.3202723621592813	0.5949737500704891	0.5904582418645163	0.09843855957534296	1.0610649334546525	0.8616147891361812	0.0552533859710888	0.8092116950748693	0.826701672111854	0.09004486309711486	0.5816929222852656	0.7421196589294989	0.14113817730894837	0.5504369435061238	0.6594794104506719	0.13304300421624785	0.5000995785895808	0.6550263969444676	0.08695539600072359	0.44417985257267684	0.7325423989274027	
